<svg width="27" height="27" viewBox="0 0 27 27" fill="none" xmlns="http://www.w3.org/2000/svg">
<g clip-path="url(#clip0_164_46)">
<path d="M3.95508 27H12.7617V17.4023H9.59766V14.2383H12.7617V10.2832C12.7617 8.10235 14.5359 6.32812 16.7168 6.32812H20.6719V9.49219H17.5078C16.6354 9.49219 15.9258 10.2018 15.9258 11.0742V14.2383H20.5291L20.0018 17.4023H15.9258V27H23.0449C25.2258 27 27 25.2258 27 23.0449V3.95508C27 1.77422 25.2258 0 23.0449 0H3.95508C1.77422 0 0 1.77422 0 3.95508V23.0449C0 25.2258 1.77422 27 3.95508 27ZM1.58203 3.95508C1.58203 2.64661 2.64661 1.58203 3.95508 1.58203H23.0449C24.3534 1.58203 25.418 2.64661 25.418 3.95508V23.0449C25.418 24.3534 24.3534 25.418 23.0449 25.418H17.5078V18.9844H21.342L22.3967 12.6562H17.5078V11.0742H22.2539V4.74609H16.7168C13.6636 4.74609 11.1797 7.22997 11.1797 10.2832V12.6562H8.01562V18.9844H11.1797V25.418H3.95508C2.64661 25.418 1.58203 24.3534 1.58203 23.0449V3.95508Z" fill="#2B3541"/>
</g>
<defs>
<clipPath id="clip0_164_46">
<rect width="27" height="27" fill="white"/>
</clipPath>
</defs>
</svg>
