<svg width="27" height="27" viewBox="0 0 27 27" fill="none" xmlns="http://www.w3.org/2000/svg">
<g clip-path="url(#clip0_164_48)">
<path d="M3.95508 27H23.0449C25.2258 27 27 25.2258 27 23.0449V3.95508C27 1.77422 25.2258 0 23.0449 0H3.95508C1.77422 0 0 1.77422 0 3.95508V23.0449C0 25.2258 1.77422 27 3.95508 27ZM1.58203 3.95508C1.58203 2.64661 2.64661 1.58203 3.95508 1.58203H23.0449C24.3534 1.58203 25.418 2.64661 25.418 3.95508V23.0449C25.418 24.3534 24.3534 25.418 23.0449 25.418H3.95508C2.64661 25.418 1.58203 24.3534 1.58203 23.0449V3.95508Z" fill="#2B3541"/>
<path d="M13.5 20.6191C17.4254 20.6191 20.6191 17.4254 20.6191 13.5C20.6191 9.57458 17.4254 6.38086 13.5 6.38086C9.57458 6.38086 6.38086 9.57458 6.38086 13.5C6.38086 17.4254 9.57458 20.6191 13.5 20.6191ZM13.5 7.96289C16.5532 7.96289 19.0371 10.4468 19.0371 13.5C19.0371 16.5532 16.5532 19.0371 13.5 19.0371C10.4468 19.0371 7.96289 16.5532 7.96289 13.5C7.96289 10.4468 10.4468 7.96289 13.5 7.96289Z" fill="#2B3541"/>
<path d="M21.4102 7.96289C22.7186 7.96289 23.7832 6.89832 23.7832 5.58984C23.7832 4.28137 22.7186 3.2168 21.4102 3.2168C20.1017 3.2168 19.0371 4.28137 19.0371 5.58984C19.0371 6.89832 20.1017 7.96289 21.4102 7.96289ZM21.4102 4.79883C21.8462 4.79883 22.2012 5.15376 22.2012 5.58984C22.2012 6.02593 21.8462 6.38086 21.4102 6.38086C20.9741 6.38086 20.6191 6.02593 20.6191 5.58984C20.6191 5.15376 20.9741 4.79883 21.4102 4.79883Z" fill="#2B3541"/>
</g>
<defs>
<clipPath id="clip0_164_48">
<rect width="27" height="27" fill="white"/>
</clipPath>
</defs>
</svg>
